<svg width="22" height="22" viewBox="0 0 22 22" fill="none" xmlns="http://www.w3.org/2000/svg">
<circle cx="11" cy="11" r="10.5" fill="#F5F5F5" stroke="#606674"/>
<path d="M8.83766 13.956V15H2.80166V14.184L6.22166 10.884C6.63766 10.484 6.91766 10.14 7.06166 9.852C7.20566 9.556 7.27766 9.26 7.27766 8.964C7.27766 8.524 7.12166 8.184 6.80966 7.944C6.50566 7.696 6.06566 7.572 5.48966 7.572C4.56166 7.572 3.84566 7.876 3.34166 8.484L2.52566 7.776C2.85366 7.376 3.28166 7.064 3.80966 6.84C4.34566 6.616 4.94166 6.504 5.59766 6.504C6.47766 6.504 7.17766 6.716 7.69766 7.14C8.21766 7.556 8.47766 8.124 8.47766 8.844C8.47766 9.292 8.38166 9.716 8.18966 10.116C7.99766 10.516 7.63366 10.972 7.09766 11.484L4.52966 13.956H8.83766ZM10.7483 6.6H14.2883C15.1763 6.6 15.9643 6.776 16.6523 7.128C17.3403 7.48 17.8723 7.976 18.2483 8.616C18.6323 9.248 18.8243 9.976 18.8243 10.8C18.8243 11.624 18.6323 12.356 18.2483 12.996C17.8723 13.628 17.3403 14.12 16.6523 14.472C15.9643 14.824 15.1763 15 14.2883 15H10.7483V6.6ZM14.2163 13.956C14.8963 13.956 15.4923 13.824 16.0043 13.56C16.5243 13.296 16.9243 12.928 17.2043 12.456C17.4843 11.976 17.6243 11.424 17.6243 10.8C17.6243 10.176 17.4843 9.628 17.2043 9.156C16.9243 8.676 16.5243 8.304 16.0043 8.04C15.4923 7.776 14.8963 7.644 14.2163 7.644H11.9483V13.956H14.2163Z" fill="#606674"/>
</svg>
