<svg width="22" height="22" viewBox="0 0 22 22" fill="none" xmlns="http://www.w3.org/2000/svg">
<circle cx="11" cy="11" r="10.75" fill="#E3000A" fill-opacity="0.7" stroke="#E3000A" stroke-width="0.5"/>
<path d="M6.13625 10.2C7.01625 10.248 7.68425 10.488 8.14025 10.92C8.60425 11.344 8.83625 11.9 8.83625 12.588C8.83625 13.068 8.72025 13.496 8.48825 13.872C8.25625 14.24 7.91225 14.532 7.45625 14.748C7.00025 14.964 6.44425 15.072 5.78825 15.072C5.18025 15.072 4.60425 14.976 4.06025 14.784C3.52425 14.584 3.09225 14.32 2.76425 13.992L3.18425 13.308C3.46425 13.596 3.83625 13.832 4.30025 14.016C4.76425 14.192 5.26025 14.28 5.78825 14.28C6.47625 14.28 7.00825 14.132 7.38425 13.836C7.76025 13.532 7.94825 13.116 7.94825 12.588C7.94825 12.068 7.76025 11.66 7.38425 11.364C7.00825 11.068 6.44025 10.92 5.68025 10.92H5.08025V10.284L7.40825 7.368H3.11225V6.6H8.51225V7.212L6.13625 10.2ZM10.7977 6.6H14.2177C15.1057 6.6 15.8897 6.78 16.5697 7.14C17.2497 7.492 17.7777 7.988 18.1537 8.628C18.5297 9.26 18.7177 9.984 18.7177 10.8C18.7177 11.616 18.5297 12.344 18.1537 12.984C17.7777 13.616 17.2497 14.112 16.5697 14.472C15.8897 14.824 15.1057 15 14.2177 15H10.7977V6.6ZM14.1697 14.232C14.9057 14.232 15.5497 14.088 16.1017 13.8C16.6537 13.504 17.0817 13.1 17.3857 12.588C17.6897 12.068 17.8417 11.472 17.8417 10.8C17.8417 10.128 17.6897 9.536 17.3857 9.024C17.0817 8.504 16.6537 8.1 16.1017 7.812C15.5497 7.516 14.9057 7.368 14.1697 7.368H11.6857V14.232H14.1697Z" fill="#F5F5F5"/>
</svg>
