<svg width="24" height="24" viewBox="0 0 24 24" fill="none" xmlns="http://www.w3.org/2000/svg">
<circle cx="12" cy="12" r="11" fill="black" fill-opacity="0.8" stroke="#606674" stroke-width="0.5"/>
<path d="M10.2888 8.3L6.87881 16H6.07581L2.66581 8.3H3.54581L6.49381 14.988L9.46381 8.3H10.2888ZM11.4063 8.3H12.2203V16H11.4063V8.3ZM17.6077 8.3C18.5903 8.3 19.3603 8.53467 19.9177 9.004C20.475 9.47333 20.7537 10.1187 20.7537 10.94C20.7537 11.7613 20.475 12.4067 19.9177 12.876C19.3603 13.338 18.5903 13.569 17.6077 13.569H15.5397V16H14.7257V8.3H17.6077ZM17.5857 12.854C18.3483 12.854 18.9313 12.689 19.3347 12.359C19.738 12.0217 19.9397 11.5487 19.9397 10.94C19.9397 10.3167 19.738 9.84 19.3347 9.51C18.9313 9.17267 18.3483 9.004 17.5857 9.004H15.5397V12.854H17.5857Z" fill="#F5F5F5"/>
</svg>
